<?xml version="1.0" encoding="UTF-8" standalone="no"?>
<!DOCTYPE svg PUBLIC "-//W3C//DTD SVG 1.1//EN" "http://www.w3.org/Graphics/SVG/1.1/DTD/svg11.dtd">
<svg width="100%" height="100%" viewBox="0 0 1280 931" version="1.1" xmlns="http://www.w3.org/2000/svg" xmlns:xlink="http://www.w3.org/1999/xlink" xml:space="preserve" xmlns:serif="http://www.serif.com/" style="fill-rule:evenodd;clip-rule:evenodd;">
    <g id="Artboard1" transform="matrix(1,0,0,0.815951,0,0)">
        <rect x="0" y="0" width="1280" height="1141" style="fill:none;"/>
        <clipPath id="_clip1">
            <rect x="0" y="0" width="1280" height="1141"/>
        </clipPath>
        <g clip-path="url(#_clip1)">
            <g transform="matrix(1,0,0,1.22556,0,0)">
                <rect x="0" y="0" width="1280" height="934" style="fill:rgb(114,174,78);fill-rule:nonzero;"/>
            </g>
            <g transform="matrix(1,0,0,1.22556,0,0)">
                <rect x="0" y="0" width="1280" height="934" style="fill:url(#_Linear2);fill-rule:nonzero;"/>
            </g>
            <g transform="matrix(1,0,0,1.22556,0,0)">
                <circle cx="640" cy="606" r="535" style="fill:url(#_Linear3);"/>
            </g>
            <g transform="matrix(1,0,0,1.22556,0,0)">
                <circle cx="640" cy="606" r="534.5" style="fill:none;stroke:url(#_Radial4);stroke-width:1px;"/>
            </g>
            <g transform="matrix(1,0,0,1.22556,0,0)">
                <circle cx="640" cy="606" r="385" style="fill:url(#_Linear5);"/>
            </g>
            <g transform="matrix(1,0,0,1.22556,0,0)">
                <circle cx="640" cy="606" r="384.5" style="fill:none;stroke:url(#_Radial6);stroke-width:1px;"/>
            </g>
            <g transform="matrix(1,0,0,1.22556,0,0)">
                <circle cx="640" cy="606" r="285" style="fill:url(#_Linear7);"/>
            </g>
            <g transform="matrix(1,0,0,1.22556,0,0)">
                <circle cx="640" cy="606" r="135" style="fill:url(#_Linear8);"/>
            </g>
            <g transform="matrix(1,0,0,1.22556,0,0)">
                <circle cx="640" cy="606" r="134.5" style="fill:none;stroke:url(#_Radial9);stroke-width:1px;"/>
            </g>
            <g transform="matrix(1,0,0,1.22556,0,0)">
                <circle cx="82.5" cy="240.5" r="2.5" style="fill:white;"/>
            </g>
            <g transform="matrix(1,0,0,1.22556,0,0)">
                <circle cx="221.5" cy="39.5" r="1.5" style="fill:white;"/>
            </g>
            <g transform="matrix(1,0,0,1.22556,0,0)">
                <circle cx="241" cy="119" r="1" style="fill:white;"/>
            </g>
            <g transform="matrix(1,0,0,1.22556,0,0)">
                <circle cx="471.5" cy="149.5" r="1.5" style="fill:white;"/>
            </g>
            <g transform="matrix(1,0,0,1.22556,0,0)">
                <circle cx="882" cy="190" r="2" style="fill:white;"/>
            </g>
            <g transform="matrix(1,0,0,1.22556,0,0)">
                <circle cx="1181" cy="129" r="1" style="fill:white;"/>
            </g>
            <g transform="matrix(1,0,0,1.22556,0,0)">
                <circle cx="1021.5" cy="69.5" r="1.5" style="fill:white;"/>
            </g>
            <g transform="matrix(1,0,0,1.22556,0,0)">
                <circle cx="1141.5" cy="259.5" r="1.5" style="fill:white;"/>
            </g>
            <g transform="matrix(1,0,0,1.22556,0,0)">
                <circle cx="1091" cy="439" r="1" style="fill:white;"/>
            </g>
            <g transform="matrix(1,0,0,1.22556,0,0)">
                <circle cx="1201.5" cy="489.5" r="1.5" style="fill:white;"/>
            </g>
            <g transform="matrix(1,0,0,1.22556,0,0)">
                <circle cx="181.5" cy="539.5" r="1.5" style="fill:white;"/>
            </g>
            <g transform="matrix(1,0,0,1.22556,0,0)">
                <circle cx="111" cy="419" r="1" style="fill:white;"/>
            </g>
            <g transform="matrix(1,0,0,1.22556,0,0)">
                <circle cx="52" cy="600" r="2" style="fill:white;"/>
            </g>
            <g transform="matrix(1,0,0,1.22556,0,0)">
                <circle cx="812.5" cy="504.5" r="1.5" style="fill:white;"/>
            </g>
            <g transform="matrix(1,0,0,1.22556,0,0)">
                <circle cx="198.5" cy="304.5" r="1.5" style="fill:white;"/>
            </g>
            <g transform="matrix(1,0,0,1.22556,0,0)">
                <circle cx="640.5" cy="471.5" r="1.5" style="fill:white;"/>
            </g>
            <g transform="matrix(1,0,0,1.22556,0,0)">
                <circle cx="1004.5" cy="483.5" r="1.5" style="fill:white;"/>
            </g>
        </g>
    </g>
    <defs>
        <linearGradient id="_Linear2" x1="0" y1="0" x2="1" y2="0" gradientUnits="userSpaceOnUse" gradientTransform="matrix(5.7191e-14,934,-934,5.7191e-14,640,0)"><stop offset="0" style="stop-color:rgb(0,111,95);stop-opacity:1"/><stop offset="0.27" style="stop-color:rgb(153,216,115);stop-opacity:0"/><stop offset="0.77" style="stop-color:rgb(255,201,96);stop-opacity:0.46"/><stop offset="1" style="stop-color:rgb(255,201,96);stop-opacity:1"/></linearGradient>
        <linearGradient id="_Linear3" x1="0" y1="0" x2="1" y2="0" gradientUnits="userSpaceOnUse" gradientTransform="matrix(6.55186e-14,1070,-1070,6.55186e-14,640,71)"><stop offset="0" style="stop-color:white;stop-opacity:0.05"/><stop offset="1" style="stop-color:white;stop-opacity:0"/></linearGradient>
        <radialGradient id="_Radial4" cx="0" cy="0" r="1" gradientUnits="userSpaceOnUse" gradientTransform="matrix(172,116,-116,172,160,232)"><stop offset="0" style="stop-color:white;stop-opacity:0.5"/><stop offset="1" style="stop-color:white;stop-opacity:0"/></radialGradient>
        <linearGradient id="_Linear5" x1="0" y1="0" x2="1" y2="0" gradientUnits="userSpaceOnUse" gradientTransform="matrix(4.71489e-14,770,-770,4.71489e-14,640,221)"><stop offset="0" style="stop-color:white;stop-opacity:0.07"/><stop offset="1" style="stop-color:white;stop-opacity:0"/></linearGradient>
        <radialGradient id="_Radial6" cx="0" cy="0" r="1" gradientUnits="userSpaceOnUse" gradientTransform="matrix(-85,54.0009,-54.0009,-85,1025,456)"><stop offset="0" style="stop-color:white;stop-opacity:0.5"/><stop offset="1" style="stop-color:white;stop-opacity:0"/></radialGradient>
        <linearGradient id="_Linear7" x1="0" y1="0" x2="1" y2="0" gradientUnits="userSpaceOnUse" gradientTransform="matrix(3.49024e-14,570,-570,3.49024e-14,640,321)"><stop offset="0" style="stop-color:white;stop-opacity:0.1"/><stop offset="1" style="stop-color:white;stop-opacity:0"/></linearGradient>
        <linearGradient id="_Linear8" x1="0" y1="0" x2="1" y2="0" gradientUnits="userSpaceOnUse" gradientTransform="matrix(1.65327e-14,270,-270,1.65327e-14,640,471)"><stop offset="0" style="stop-color:white;stop-opacity:0.2"/><stop offset="1" style="stop-color:white;stop-opacity:0"/></linearGradient>
        <radialGradient id="_Radial9" cx="0" cy="0" r="1" gradientUnits="userSpaceOnUse" gradientTransform="matrix(-1.95257e-14,51,-51,-1.95257e-14,640,471)"><stop offset="0" style="stop-color:white;stop-opacity:0.5"/><stop offset="1" style="stop-color:white;stop-opacity:0"/></radialGradient>
    </defs>
</svg>
