<?xml version="1.0" standalone="no"?>
<!DOCTYPE svg PUBLIC "-//W3C//DTD SVG 20010904//EN"
 "http://www.w3.org/TR/2001/REC-SVG-20010904/DTD/svg10.dtd">
<svg version="1.0" xmlns="http://www.w3.org/2000/svg"
 width="932.000000pt" height="281.000000pt" viewBox="0 0 932.000000 281.000000"
 preserveAspectRatio="xMidYMid meet">
<g transform="translate(0.000000,281.000000) scale(0.100000,-0.100000)" fill="#660000" stroke="none">
<path d="M1680 2724 c-201 -43 -370 -162 -467 -330 -46 -78 -77 -195 -67 -252
20 -119 40 -141 66 -73 14 36 79 141 103 167 5 6 22 24 36 40 62 69 185 166
259 204 68 35 176 60 261 60 217 0 406 -153 479 -388 9 -29 21 -53 26 -53 28
1 27 209 -2 296 -48 140 -128 216 -314 298 -49 22 -192 47 -259 46 -31 0 -85
-7 -121 -15z"/>
<path d="M585 2540 c-141 -21 -260 -83 -351 -183 -75 -81 -110 -139 -140 -230
-53 -159 -25 -307 89 -481 63 -94 240 -284 342 -364 39 -31 72 -59 75 -62 10
-12 236 -177 290 -212 198 -127 273 -175 417 -263 l163 -100 0 -243 0 -243 88
3 87 3 3 188 c1 103 5 187 8 187 9 0 148 -82 169 -100 51 -44 54 -38 11 24
-34 48 -47 65 -118 145 l-68 76 0 408 0 407 320 0 320 0 0 75 0 75 -317 2
-318 3 -5 245 -5 245 -90 0 -90 0 0 -245 0 -245 -242 -3 -243 -2 0 -75 0 -75
245 0 245 0 0 -330 c0 -231 -3 -330 -11 -330 -9 0 -126 79 -274 185 -23 17
-64 46 -91 65 -98 69 -302 226 -411 317 -252 210 -316 322 -316 543 0 95 4
125 22 173 12 31 28 63 35 70 6 6 22 26 34 44 28 39 135 111 180 119 18 4 35
10 38 15 7 12 141 12 148 0 3 -4 20 -11 38 -15 63 -12 159 -89 214 -171 47
-68 43 -35 -7 66 -28 55 -63 105 -108 151 -36 37 -69 68 -74 68 -5 0 -21 8
-35 19 -15 10 -43 22 -62 26 -19 4 -39 11 -45 15 -16 12 -106 18 -160 10z"/>
<path d="M2715 1980 c-201 -31 -325 -176 -355 -416 -21 -167 31 -365 118 -450
82 -79 198 -121 312 -111 139 13 260 79 260 143 0 60 -11 62 -105 15 -79 -40
-92 -44 -163 -44 -88 1 -131 15 -186 63 -77 68 -113 192 -103 354 7 113 35
194 91 254 57 62 104 82 196 82 79 0 124 -15 196 -63 49 -34 64 -26 64 34 0
43 -4 51 -35 74 -62 48 -200 78 -290 65z"/>
<path d="M3510 1983 c-111 -18 -212 -79 -273 -163 -109 -150 -114 -479 -10
-657 32 -55 73 -89 153 -127 61 -29 72 -30 185 -31 146 0 206 20 288 95 100
91 147 223 147 407 -1 225 -71 368 -216 439 -73 36 -188 51 -274 37z m209
-138 c54 -27 112 -103 129 -170 31 -117 22 -313 -18 -403 -42 -94 -123 -151
-225 -160 -214 -17 -320 109 -319 378 0 129 16 198 63 273 30 47 96 93 154
108 55 14 163 1 216 -26z"/>
<path d="M4093 1969 c-13 -13 -14 -9 65 -234 86 -242 178 -505 214 -610 17
-49 35 -96 41 -102 6 -8 34 -13 72 -13 69 0 84 10 102 70 6 19 39 114 73 210
34 96 70 200 80 230 10 30 46 134 80 230 78 220 75 210 59 221 -21 13 -83 11
-101 -3 -9 -7 -75 -191 -146 -408 -72 -217 -134 -396 -139 -397 -4 -1 -40 95
-80 215 -155 468 -195 577 -210 590 -21 15 -95 16 -110 1z"/>
<path d="M6403 1970 l-23 -9 0 -376 c0 -206 -3 -375 -8 -375 -4 0 -18 22 -31
50 -13 27 -69 136 -126 242 -56 106 -128 243 -159 303 -32 61 -71 122 -87 138
-26 24 -37 27 -93 27 -103 0 -96 35 -96 -486 0 -337 3 -453 12 -462 17 -17 93
-15 107 2 9 11 11 116 9 404 -2 215 0 388 4 386 4 -3 37 -64 74 -137 36 -73
70 -136 74 -142 4 -5 31 -55 60 -110 48 -92 102 -193 170 -320 34 -63 79 -95
135 -95 78 0 75 -23 75 494 l0 456 -26 10 c-30 12 -42 12 -71 0z"/>
<path d="M7002 1963 c-12 -11 -60 -130 -122 -303 -56 -157 -110 -307 -121
-335 -65 -175 -101 -286 -96 -300 8 -19 100 -21 114 -2 5 6 27 62 48 122 21
61 43 113 49 117 6 4 92 8 191 8 99 0 185 -4 191 -8 6 -4 25 -50 44 -102 55
-155 51 -151 118 -148 55 3 57 4 55 30 -1 15 -54 172 -118 350 -65 178 -135
375 -158 438 -22 63 -49 123 -60 133 -12 11 -36 17 -67 17 -31 0 -55 -6 -68
-17z m89 -194 c9 -30 44 -132 77 -226 l60 -173 -164 0 c-90 0 -164 1 -164 3 0
1 30 88 66 192 37 105 71 207 77 228 6 20 16 36 21 34 6 -2 18 -28 27 -58z"/>
<path d="M8260 1971 l-25 -7 -3 -377 c-1 -207 -6 -377 -10 -377 -4 1 -27 42
-52 92 -116 236 -324 616 -351 641 -26 24 -37 27 -94 27 -101 0 -95 31 -95
-490 0 -334 3 -449 12 -458 7 -7 29 -12 49 -12 74 0 69 -32 70 409 0 264 3
391 10 381 5 -8 57 -105 115 -215 232 -440 287 -537 319 -556 36 -22 103 -25
131 -5 18 14 19 32 22 474 l3 460 -32 11 c-35 12 -33 12 -69 2z"/>
<path d="M5060 1960 c-13 -8 -15 -71 -15 -465 0 -440 1 -457 19 -471 16 -11
68 -14 258 -14 l238 0 11 28 c7 16 7 37 2 52 l-8 25 -198 3 -197 2 0 170 0
170 168 2 167 3 0 50 0 50 -167 3 -168 2 0 150 0 150 195 0 195 0 6 25 c3 14
3 36 0 50 l-6 25 -243 0 c-135 0 -249 -4 -257 -10z"/>
<path d="M8500 1949 c-6 -11 -8 -33 -5 -49 l6 -29 142 -3 142 -3 5 -425 5
-425 55 0 55 0 5 425 5 425 145 5 c143 5 145 5 148 29 2 12 1 34 -2 47 l-6 24
-345 0 c-337 0 -345 0 -355 -21z"/>
</g>
<g transform="translate(0.000000,281.000000) scale(0.100000,-0.100000)" fill="#00137f" stroke="none">
<path d="M5130 829 c-56 -17 -88 -46 -101 -91 -23 -87 8 -139 120 -197 95 -49
124 -81 116 -125 -4 -17 -18 -41 -31 -53 -33 -30 -113 -31 -169 -3 -51 26 -55
26 -55 -10 0 -27 6 -34 43 -50 58 -27 155 -27 207 0 74 38 103 143 57 211 -14
21 -51 48 -102 76 -122 65 -148 105 -102 159 19 22 32 27 69 27 24 0 59 -7 78
-16 45 -23 50 -22 50 14 0 25 -6 32 -34 44 -48 20 -105 26 -146 14z"/>
<path d="M6207 826 c-62 -17 -94 -41 -134 -99 -37 -55 -49 -123 -40 -228 6
-71 20 -108 62 -157 52 -62 189 -80 280 -36 33 16 41 25 43 52 4 38 -4 39 -54
10 -44 -26 -136 -31 -175 -10 -111 59 -114 324 -5 392 47 28 119 27 177 -5 26
-13 49 -21 53 -18 12 13 6 50 -12 66 -14 13 -123 49 -142 46 -3 0 -27 -6 -53
-13z"/>
<path d="M8224 826 c-119 -29 -179 -124 -178 -280 1 -130 42 -208 129 -247 85
-39 247 -9 261 48 10 39 -9 49 -48 25 -18 -11 -56 -24 -84 -27 -68 -9 -115 11
-151 66 -26 40 -28 50 -28 143 0 89 3 106 24 140 49 79 144 100 230 51 23 -14
45 -25 47 -25 2 0 4 16 4 35 0 38 -24 56 -90 70 -19 3 -42 8 -50 10 -8 2 -38
-2 -66 -9z"/>
<path d="M3016 814 c-14 -13 -16 -51 -16 -259 0 -289 -5 -275 105 -275 108 0
171 16 213 54 30 28 36 40 40 88 5 65 -13 108 -57 134 l-30 18 24 28 c69 82
28 199 -77 219 -76 14 -185 11 -202 -7z m202 -60 c34 -23 45 -60 31 -101 -14
-42 -53 -63 -119 -63 l-50 0 0 90 0 90 58 0 c37 0 66 -6 80 -16z m29 -240 c34
-25 46 -69 32 -112 -14 -42 -36 -53 -125 -59 l-74 -6 0 103 0 102 70 -4 c50
-3 77 -9 97 -24z"/>
<path d="M3603 818 c-21 -29 -193 -522 -184 -531 13 -13 52 -5 62 13 5 8 18
41 30 73 l21 58 111 -3 111 -3 27 -70 c23 -61 30 -70 54 -73 54 -7 53 -2 -45
263 -10 28 -35 97 -56 155 -20 58 -41 111 -47 118 -5 6 -24 12 -42 12 -18 0
-37 -6 -42 -12z m96 -227 c17 -47 31 -88 31 -93 0 -4 -41 -8 -91 -8 -83 0 -90
2 -84 18 4 9 22 64 41 121 19 57 38 109 41 115 4 6 12 -7 19 -29 6 -22 26 -78
43 -124z"/>
<path d="M3982 822 c-9 -7 -12 -68 -10 -273 l3 -264 30 0 30 0 3 103 3 102 39
0 c57 0 132 19 157 39 39 32 63 83 63 134 0 82 -43 138 -120 156 -53 12 -180
14 -198 3z m213 -82 c34 -32 41 -79 20 -124 -22 -46 -60 -66 -125 -66 l-50 0
0 111 0 111 65 -4 c50 -3 70 -9 90 -28z"/>
<path d="M4350 800 l0 -30 80 0 80 0 2 -242 3 -243 32 -3 33 -3 2 243 3 243
83 3 83 3 -3 27 -3 27 -197 3 -198 2 0 -30z"/>
<path d="M4835 817 c-3 -7 -4 -129 -3 -272 l3 -260 30 0 30 0 3 273 2 272 -30
0 c-17 0 -33 -6 -35 -13z"/>
<path d="M5380 800 l0 -30 80 0 80 0 2 -242 3 -243 33 -3 32 -3 0 103 c0 57 3
167 7 246 l6 142 79 0 79 0 -3 28 -3 27 -197 3 -198 2 0 -30z"/>
<path d="M6525 818 c-3 -7 -4 -130 -3 -273 l3 -260 30 0 30 0 3 128 3 128 122
-3 122 -3 5 -125 5 -125 30 0 30 0 0 270 0 270 -30 0 -30 0 -3 -112 -3 -113
-124 0 -124 0 -3 113 -3 112 -28 3 c-16 2 -29 -2 -32 -10z"/>
<path d="M7060 826 c-3 -2 -3 -101 0 -218 5 -208 6 -216 30 -251 14 -20 44
-46 67 -57 51 -24 145 -27 195 -5 41 17 95 74 105 113 5 15 8 115 8 222 l0
195 -32 3 -33 3 0 -164 c0 -265 -18 -315 -119 -325 -64 -6 -107 11 -129 52
-14 25 -18 68 -22 231 l-5 200 -30 3 c-17 2 -33 1 -35 -2z"/>
<path d="M7622 817 c-9 -11 -12 -79 -10 -273 l3 -259 28 -3 c16 -2 29 2 32 10
2 7 5 63 7 123 l3 110 29 3 c38 5 83 -15 105 -47 10 -14 31 -60 46 -101 36
-93 41 -100 76 -100 21 0 29 5 29 18 0 33 -82 212 -107 232 l-24 19 31 16 c93
48 92 192 -2 241 -47 24 -228 33 -246 11z m213 -72 c30 -30 34 -92 8 -124 -18
-22 -74 -40 -125 -41 l-28 0 0 95 0 95 60 0 c51 0 65 -4 85 -25z"/>
<path d="M8540 556 l0 -276 29 0 c17 0 31 6 35 16 3 9 6 67 6 130 l0 114 120
0 120 0 0 -62 c0 -35 3 -94 7 -131 l6 -68 31 3 31 3 0 270 0 270 -32 3 -33 3
0 -78 c0 -43 -3 -95 -6 -115 l-7 -38 -118 0 -118 0 -3 113 -3 112 -32 3 -33 3
0 -275z"/>
<path d="M3010 135 l0 -35 3100 0 3100 0 0 35 0 35 -3100 0 -3100 0 0 -35z"/>
</g>
</svg>
